<mxfile host="Electron" modified="2023-06-22T06:33:06.446Z" agent="Mozilla/5.0 (Windows NT 10.0; Win64; x64) AppleWebKit/537.36 (KHTML, like Gecko) draw.io/21.5.0 Chrome/112.0.5615.204 Electron/24.5.1 Safari/537.36" etag="XOr5At1R3K309dbckAry" version="21.5.0" type="device">
  <diagram name="第 1 页" id="5KSprpMwUYVPSRvnmA9z">
    <mxGraphModel dx="819" dy="478" grid="0" gridSize="9.842500000000001" guides="1" tooltips="1" connect="1" arrows="1" fold="1" page="1" pageScale="1" pageWidth="1654" pageHeight="1169" background="#E6E6E6" math="0" shadow="0">
      <root>
        <mxCell id="0" />
        <mxCell id="1" parent="0" />
        <mxCell id="EGFDkehEQVp23pimZ-VM-1" value="" style="endArrow=none;html=1;rounded=0;" edge="1" parent="1">
          <mxGeometry width="50" height="50" relative="1" as="geometry">
            <mxPoint x="1235" y="299" as="sourcePoint" />
            <mxPoint x="1315" y="299" as="targetPoint" />
          </mxGeometry>
        </mxCell>
        <mxCell id="EGFDkehEQVp23pimZ-VM-2" value="" style="endArrow=none;html=1;rounded=0;" edge="1" parent="1">
          <mxGeometry width="50" height="50" relative="1" as="geometry">
            <mxPoint x="1235" y="358.8299999999999" as="sourcePoint" />
            <mxPoint x="1315" y="358.8299999999999" as="targetPoint" />
          </mxGeometry>
        </mxCell>
        <mxCell id="EGFDkehEQVp23pimZ-VM-3" value="" style="endArrow=none;html=1;rounded=0;" edge="1" parent="1">
          <mxGeometry width="50" height="50" relative="1" as="geometry">
            <mxPoint x="1235" y="379" as="sourcePoint" />
            <mxPoint x="1315" y="379" as="targetPoint" />
          </mxGeometry>
        </mxCell>
        <mxCell id="EGFDkehEQVp23pimZ-VM-4" value="" style="endArrow=none;html=1;rounded=0;" edge="1" parent="1">
          <mxGeometry width="50" height="50" relative="1" as="geometry">
            <mxPoint x="1235" y="439" as="sourcePoint" />
            <mxPoint x="1315" y="439" as="targetPoint" />
          </mxGeometry>
        </mxCell>
        <mxCell id="EGFDkehEQVp23pimZ-VM-6" value="" style="rounded=0;whiteSpace=wrap;html=1;" vertex="1" parent="1">
          <mxGeometry x="1235" y="309" width="80" height="40" as="geometry" />
        </mxCell>
        <mxCell id="EGFDkehEQVp23pimZ-VM-7" value="" style="rounded=0;whiteSpace=wrap;html=1;" vertex="1" parent="1">
          <mxGeometry x="1235" y="389" width="80" height="40" as="geometry" />
        </mxCell>
        <mxCell id="EGFDkehEQVp23pimZ-VM-8" value="" style="endArrow=none;html=1;rounded=0;" edge="1" parent="1">
          <mxGeometry width="50" height="50" relative="1" as="geometry">
            <mxPoint x="1315" y="299" as="sourcePoint" />
            <mxPoint x="1385" y="359" as="targetPoint" />
          </mxGeometry>
        </mxCell>
        <mxCell id="EGFDkehEQVp23pimZ-VM-9" value="" style="endArrow=none;html=1;rounded=0;" edge="1" parent="1">
          <mxGeometry width="50" height="50" relative="1" as="geometry">
            <mxPoint x="1315" y="379" as="sourcePoint" />
            <mxPoint x="1385" y="379" as="targetPoint" />
          </mxGeometry>
        </mxCell>
        <mxCell id="EGFDkehEQVp23pimZ-VM-10" value="" style="endArrow=none;html=1;rounded=0;" edge="1" parent="1">
          <mxGeometry width="50" height="50" relative="1" as="geometry">
            <mxPoint x="1315" y="439" as="sourcePoint" />
            <mxPoint x="1385" y="379" as="targetPoint" />
          </mxGeometry>
        </mxCell>
        <mxCell id="EGFDkehEQVp23pimZ-VM-11" value="" style="endArrow=none;html=1;rounded=0;" edge="1" parent="1">
          <mxGeometry width="50" height="50" relative="1" as="geometry">
            <mxPoint x="1315" y="359" as="sourcePoint" />
            <mxPoint x="1385" y="359" as="targetPoint" />
          </mxGeometry>
        </mxCell>
        <mxCell id="EGFDkehEQVp23pimZ-VM-12" value="" style="endArrow=none;html=1;rounded=0;" edge="1" parent="1">
          <mxGeometry width="50" height="50" relative="1" as="geometry">
            <mxPoint x="1385" y="359" as="sourcePoint" />
            <mxPoint x="1455" y="359" as="targetPoint" />
          </mxGeometry>
        </mxCell>
        <mxCell id="EGFDkehEQVp23pimZ-VM-13" value="" style="endArrow=none;html=1;rounded=0;" edge="1" parent="1">
          <mxGeometry width="50" height="50" relative="1" as="geometry">
            <mxPoint x="1385" y="379" as="sourcePoint" />
            <mxPoint x="1455" y="379" as="targetPoint" />
          </mxGeometry>
        </mxCell>
        <mxCell id="EGFDkehEQVp23pimZ-VM-14" value="" style="endArrow=none;html=1;rounded=0;" edge="1" parent="1">
          <mxGeometry width="50" height="50" relative="1" as="geometry">
            <mxPoint x="1395" y="359" as="sourcePoint" />
            <mxPoint x="1415" y="379" as="targetPoint" />
          </mxGeometry>
        </mxCell>
        <mxCell id="EGFDkehEQVp23pimZ-VM-15" value="" style="endArrow=none;html=1;rounded=0;" edge="1" parent="1">
          <mxGeometry width="50" height="50" relative="1" as="geometry">
            <mxPoint x="1395" y="379" as="sourcePoint" />
            <mxPoint x="1415" y="359" as="targetPoint" />
          </mxGeometry>
        </mxCell>
        <mxCell id="EGFDkehEQVp23pimZ-VM-16" value="" style="endArrow=none;html=1;rounded=0;" edge="1" parent="1">
          <mxGeometry width="50" height="50" relative="1" as="geometry">
            <mxPoint x="1455" y="389" as="sourcePoint" />
            <mxPoint x="1455" y="369" as="targetPoint" />
          </mxGeometry>
        </mxCell>
        <mxCell id="EGFDkehEQVp23pimZ-VM-17" value="" style="endArrow=none;html=1;rounded=0;" edge="1" parent="1">
          <mxGeometry width="50" height="50" relative="1" as="geometry">
            <mxPoint x="1455" y="359" as="sourcePoint" />
            <mxPoint x="1515" y="299" as="targetPoint" />
          </mxGeometry>
        </mxCell>
        <mxCell id="EGFDkehEQVp23pimZ-VM-18" value="" style="endArrow=none;html=1;rounded=0;" edge="1" parent="1">
          <mxGeometry width="50" height="50" relative="1" as="geometry">
            <mxPoint x="1515" y="299" as="sourcePoint" />
            <mxPoint x="1595" y="299" as="targetPoint" />
          </mxGeometry>
        </mxCell>
        <mxCell id="EGFDkehEQVp23pimZ-VM-19" value="" style="endArrow=none;html=1;rounded=0;" edge="1" parent="1">
          <mxGeometry width="50" height="50" relative="1" as="geometry">
            <mxPoint x="1505" y="309" as="sourcePoint" />
            <mxPoint x="1595" y="309" as="targetPoint" />
          </mxGeometry>
        </mxCell>
        <mxCell id="EGFDkehEQVp23pimZ-VM-20" value="" style="endArrow=none;html=1;rounded=0;" edge="1" parent="1">
          <mxGeometry width="50" height="50" relative="1" as="geometry">
            <mxPoint x="1495" y="319" as="sourcePoint" />
            <mxPoint x="1595" y="319" as="targetPoint" />
          </mxGeometry>
        </mxCell>
        <mxCell id="EGFDkehEQVp23pimZ-VM-21" value="" style="endArrow=none;html=1;rounded=0;" edge="1" parent="1">
          <mxGeometry width="50" height="50" relative="1" as="geometry">
            <mxPoint x="1485" y="329" as="sourcePoint" />
            <mxPoint x="1595" y="328.8299999999999" as="targetPoint" />
          </mxGeometry>
        </mxCell>
        <mxCell id="EGFDkehEQVp23pimZ-VM-22" value="" style="endArrow=none;html=1;rounded=0;" edge="1" parent="1">
          <mxGeometry width="50" height="50" relative="1" as="geometry">
            <mxPoint x="1595" y="339" as="sourcePoint" />
            <mxPoint x="1595" y="289" as="targetPoint" />
          </mxGeometry>
        </mxCell>
        <mxCell id="EGFDkehEQVp23pimZ-VM-23" value="" style="endArrow=none;html=1;rounded=0;" edge="1" parent="1">
          <mxGeometry width="50" height="50" relative="1" as="geometry">
            <mxPoint x="1465" y="348.76" as="sourcePoint" />
            <mxPoint x="1615" y="348.76" as="targetPoint" />
          </mxGeometry>
        </mxCell>
        <mxCell id="EGFDkehEQVp23pimZ-VM-24" value="" style="endArrow=none;html=1;rounded=0;" edge="1" parent="1">
          <mxGeometry width="50" height="50" relative="1" as="geometry">
            <mxPoint x="1615" y="358" as="sourcePoint" />
            <mxPoint x="1615" y="338" as="targetPoint" />
          </mxGeometry>
        </mxCell>
        <mxCell id="EGFDkehEQVp23pimZ-VM-26" value="" style="endArrow=none;html=1;rounded=0;" edge="1" parent="1">
          <mxGeometry width="50" height="50" relative="1" as="geometry">
            <mxPoint x="765" y="379" as="sourcePoint" />
            <mxPoint x="1235" y="379" as="targetPoint" />
          </mxGeometry>
        </mxCell>
        <mxCell id="EGFDkehEQVp23pimZ-VM-25" value="" style="endArrow=none;html=1;rounded=0;" edge="1" parent="1">
          <mxGeometry width="50" height="50" relative="1" as="geometry">
            <mxPoint x="764.6666666666666" y="359" as="sourcePoint" />
            <mxPoint x="1235" y="359" as="targetPoint" />
          </mxGeometry>
        </mxCell>
        <mxCell id="EGFDkehEQVp23pimZ-VM-27" value="" style="endArrow=none;html=1;rounded=0;" edge="1" parent="1">
          <mxGeometry width="50" height="50" relative="1" as="geometry">
            <mxPoint x="1165" y="379" as="sourcePoint" />
            <mxPoint x="1235" y="439" as="targetPoint" />
          </mxGeometry>
        </mxCell>
        <mxCell id="EGFDkehEQVp23pimZ-VM-28" value="" style="endArrow=none;html=1;rounded=0;" edge="1" parent="1">
          <mxGeometry width="50" height="50" relative="1" as="geometry">
            <mxPoint x="1165" y="359" as="sourcePoint" />
            <mxPoint x="1235" y="299" as="targetPoint" />
          </mxGeometry>
        </mxCell>
        <mxCell id="EGFDkehEQVp23pimZ-VM-29" value="" style="endArrow=none;html=1;rounded=0;" edge="1" parent="1">
          <mxGeometry width="50" height="50" relative="1" as="geometry">
            <mxPoint x="1135" y="359" as="sourcePoint" />
            <mxPoint x="1155" y="379" as="targetPoint" />
          </mxGeometry>
        </mxCell>
        <mxCell id="EGFDkehEQVp23pimZ-VM-30" value="" style="endArrow=none;html=1;rounded=0;" edge="1" parent="1">
          <mxGeometry width="50" height="50" relative="1" as="geometry">
            <mxPoint x="1135" y="379" as="sourcePoint" />
            <mxPoint x="1155" y="359" as="targetPoint" />
          </mxGeometry>
        </mxCell>
        <mxCell id="EGFDkehEQVp23pimZ-VM-31" value="" style="endArrow=none;html=1;rounded=0;" edge="1" parent="1">
          <mxGeometry width="50" height="50" relative="1" as="geometry">
            <mxPoint x="555" y="359" as="sourcePoint" />
            <mxPoint x="765" y="359" as="targetPoint" />
          </mxGeometry>
        </mxCell>
        <mxCell id="EGFDkehEQVp23pimZ-VM-32" value="" style="endArrow=none;html=1;rounded=0;" edge="1" parent="1">
          <mxGeometry width="50" height="50" relative="1" as="geometry">
            <mxPoint x="555" y="379" as="sourcePoint" />
            <mxPoint x="765" y="379" as="targetPoint" />
          </mxGeometry>
        </mxCell>
        <mxCell id="EGFDkehEQVp23pimZ-VM-33" value="" style="endArrow=none;html=1;rounded=0;" edge="1" parent="1">
          <mxGeometry width="50" height="50" relative="1" as="geometry">
            <mxPoint x="565" y="379" as="sourcePoint" />
            <mxPoint x="585" y="359" as="targetPoint" />
          </mxGeometry>
        </mxCell>
        <mxCell id="EGFDkehEQVp23pimZ-VM-34" value="" style="endArrow=none;html=1;rounded=0;" edge="1" parent="1">
          <mxGeometry width="50" height="50" relative="1" as="geometry">
            <mxPoint x="565" y="359" as="sourcePoint" />
            <mxPoint x="585" y="379" as="targetPoint" />
          </mxGeometry>
        </mxCell>
        <mxCell id="EGFDkehEQVp23pimZ-VM-35" value="" style="endArrow=none;html=1;rounded=0;" edge="1" parent="1">
          <mxGeometry width="50" height="50" relative="1" as="geometry">
            <mxPoint x="225" y="299" as="sourcePoint" />
            <mxPoint x="485" y="299" as="targetPoint" />
          </mxGeometry>
        </mxCell>
        <mxCell id="EGFDkehEQVp23pimZ-VM-36" value="" style="endArrow=none;html=1;rounded=0;" edge="1" parent="1">
          <mxGeometry width="50" height="50" relative="1" as="geometry">
            <mxPoint x="155" y="359" as="sourcePoint" />
            <mxPoint x="555" y="359" as="targetPoint" />
          </mxGeometry>
        </mxCell>
        <mxCell id="EGFDkehEQVp23pimZ-VM-37" value="" style="endArrow=none;html=1;rounded=0;" edge="1" parent="1">
          <mxGeometry width="50" height="50" relative="1" as="geometry">
            <mxPoint x="155" y="379" as="sourcePoint" />
            <mxPoint x="555" y="379" as="targetPoint" />
          </mxGeometry>
        </mxCell>
        <mxCell id="EGFDkehEQVp23pimZ-VM-38" value="" style="endArrow=none;html=1;rounded=0;" edge="1" parent="1">
          <mxGeometry width="50" height="50" relative="1" as="geometry">
            <mxPoint x="315" y="519" as="sourcePoint" />
            <mxPoint x="395" y="519" as="targetPoint" />
          </mxGeometry>
        </mxCell>
        <mxCell id="EGFDkehEQVp23pimZ-VM-39" value="" style="endArrow=none;html=1;rounded=0;" edge="1" parent="1">
          <mxGeometry width="50" height="50" relative="1" as="geometry">
            <mxPoint x="225" y="439" as="sourcePoint" />
            <mxPoint x="485" y="439" as="targetPoint" />
          </mxGeometry>
        </mxCell>
        <mxCell id="EGFDkehEQVp23pimZ-VM-40" value="" style="endArrow=none;html=1;rounded=0;" edge="1" parent="1">
          <mxGeometry width="50" height="50" relative="1" as="geometry">
            <mxPoint x="245" y="459" as="sourcePoint" />
            <mxPoint x="465" y="459" as="targetPoint" />
          </mxGeometry>
        </mxCell>
        <mxCell id="EGFDkehEQVp23pimZ-VM-41" value="" style="endArrow=none;html=1;rounded=0;" edge="1" parent="1">
          <mxGeometry width="50" height="50" relative="1" as="geometry">
            <mxPoint x="245" y="279" as="sourcePoint" />
            <mxPoint x="465" y="279" as="targetPoint" />
          </mxGeometry>
        </mxCell>
        <mxCell id="EGFDkehEQVp23pimZ-VM-42" value="" style="endArrow=none;html=1;rounded=0;" edge="1" parent="1">
          <mxGeometry width="50" height="50" relative="1" as="geometry">
            <mxPoint x="315" y="219" as="sourcePoint" />
            <mxPoint x="395" y="219" as="targetPoint" />
          </mxGeometry>
        </mxCell>
        <mxCell id="EGFDkehEQVp23pimZ-VM-43" value="" style="endArrow=none;html=1;rounded=0;" edge="1" parent="1">
          <mxGeometry width="50" height="50" relative="1" as="geometry">
            <mxPoint x="395" y="219" as="sourcePoint" />
            <mxPoint x="555" y="359" as="targetPoint" />
          </mxGeometry>
        </mxCell>
        <mxCell id="EGFDkehEQVp23pimZ-VM-44" value="" style="endArrow=none;html=1;rounded=0;" edge="1" parent="1">
          <mxGeometry width="50" height="50" relative="1" as="geometry">
            <mxPoint x="395" y="519" as="sourcePoint" />
            <mxPoint x="555" y="379" as="targetPoint" />
          </mxGeometry>
        </mxCell>
        <mxCell id="EGFDkehEQVp23pimZ-VM-45" value="" style="rounded=0;whiteSpace=wrap;html=1;" vertex="1" parent="1">
          <mxGeometry x="315" y="469" width="80" height="40" as="geometry" />
        </mxCell>
        <mxCell id="EGFDkehEQVp23pimZ-VM-46" value="" style="rounded=0;whiteSpace=wrap;html=1;" vertex="1" parent="1">
          <mxGeometry x="315" y="389" width="80" height="40" as="geometry" />
        </mxCell>
        <mxCell id="EGFDkehEQVp23pimZ-VM-47" value="" style="rounded=0;whiteSpace=wrap;html=1;" vertex="1" parent="1">
          <mxGeometry x="315" y="309" width="80" height="40" as="geometry" />
        </mxCell>
        <mxCell id="EGFDkehEQVp23pimZ-VM-48" value="" style="rounded=0;whiteSpace=wrap;html=1;" vertex="1" parent="1">
          <mxGeometry x="315" y="229" width="80" height="40" as="geometry" />
        </mxCell>
        <mxCell id="EGFDkehEQVp23pimZ-VM-49" value="" style="endArrow=none;html=1;rounded=0;" edge="1" parent="1">
          <mxGeometry width="50" height="50" relative="1" as="geometry">
            <mxPoint x="155" y="379" as="sourcePoint" />
            <mxPoint x="315" y="519" as="targetPoint" />
          </mxGeometry>
        </mxCell>
        <mxCell id="EGFDkehEQVp23pimZ-VM-50" value="" style="endArrow=none;html=1;rounded=0;" edge="1" parent="1">
          <mxGeometry width="50" height="50" relative="1" as="geometry">
            <mxPoint x="155" y="359" as="sourcePoint" />
            <mxPoint x="315" y="219" as="targetPoint" />
          </mxGeometry>
        </mxCell>
        <mxCell id="EGFDkehEQVp23pimZ-VM-51" value="" style="endArrow=classic;html=1;rounded=0;endFill=1;" edge="1" parent="1">
          <mxGeometry width="50" height="50" relative="1" as="geometry">
            <mxPoint x="76" y="359" as="sourcePoint" />
            <mxPoint x="107" y="359" as="targetPoint" />
          </mxGeometry>
        </mxCell>
        <mxCell id="EGFDkehEQVp23pimZ-VM-52" value="" style="endArrow=classic;html=1;rounded=0;endFill=1;" edge="1" parent="1">
          <mxGeometry width="50" height="50" relative="1" as="geometry">
            <mxPoint x="155" y="379" as="sourcePoint" />
            <mxPoint x="75" y="379" as="targetPoint" />
          </mxGeometry>
        </mxCell>
        <mxCell id="EGFDkehEQVp23pimZ-VM-54" value="" style="endArrow=none;html=1;rounded=0;" edge="1" parent="1">
          <mxGeometry width="50" height="50" relative="1" as="geometry">
            <mxPoint x="125" y="379" as="sourcePoint" />
            <mxPoint x="145" y="359" as="targetPoint" />
          </mxGeometry>
        </mxCell>
        <mxCell id="EGFDkehEQVp23pimZ-VM-55" value="" style="endArrow=none;html=1;rounded=0;" edge="1" parent="1">
          <mxGeometry width="50" height="50" relative="1" as="geometry">
            <mxPoint x="105" y="339" as="sourcePoint" />
            <mxPoint x="145" y="379" as="targetPoint" />
          </mxGeometry>
        </mxCell>
        <mxCell id="EGFDkehEQVp23pimZ-VM-56" value="" style="endArrow=none;html=1;rounded=0;" edge="1" parent="1">
          <mxGeometry width="50" height="50" relative="1" as="geometry">
            <mxPoint x="105" y="339" as="sourcePoint" />
            <mxPoint x="105" y="299" as="targetPoint" />
          </mxGeometry>
        </mxCell>
        <mxCell id="EGFDkehEQVp23pimZ-VM-57" value="" style="endArrow=none;html=1;rounded=0;" edge="1" parent="1">
          <mxGeometry width="50" height="50" relative="1" as="geometry">
            <mxPoint x="95" y="259" as="sourcePoint" />
            <mxPoint x="95" y="179" as="targetPoint" />
          </mxGeometry>
        </mxCell>
        <mxCell id="EGFDkehEQVp23pimZ-VM-58" value="" style="endArrow=none;html=1;rounded=0;" edge="1" parent="1">
          <mxGeometry width="50" height="50" relative="1" as="geometry">
            <mxPoint x="105" y="259" as="sourcePoint" />
            <mxPoint x="105" y="179" as="targetPoint" />
          </mxGeometry>
        </mxCell>
        <mxCell id="EGFDkehEQVp23pimZ-VM-59" value="" style="endArrow=none;html=1;rounded=0;" edge="1" parent="1">
          <mxGeometry width="50" height="50" relative="1" as="geometry">
            <mxPoint x="85" y="259" as="sourcePoint" />
            <mxPoint x="85" y="179" as="targetPoint" />
          </mxGeometry>
        </mxCell>
        <mxCell id="EGFDkehEQVp23pimZ-VM-60" value="" style="endArrow=none;html=1;rounded=0;" edge="1" parent="1">
          <mxGeometry width="50" height="50" relative="1" as="geometry">
            <mxPoint x="65" y="219" as="sourcePoint" />
            <mxPoint x="65" y="139" as="targetPoint" />
          </mxGeometry>
        </mxCell>
        <mxCell id="EGFDkehEQVp23pimZ-VM-61" value="" style="endArrow=none;html=1;rounded=0;" edge="1" parent="1">
          <mxGeometry width="50" height="50" relative="1" as="geometry">
            <mxPoint x="115" y="259" as="sourcePoint" />
            <mxPoint x="115" y="179" as="targetPoint" />
          </mxGeometry>
        </mxCell>
        <mxCell id="EGFDkehEQVp23pimZ-VM-62" value="" style="endArrow=none;html=1;rounded=0;" edge="1" parent="1">
          <mxGeometry width="50" height="50" relative="1" as="geometry">
            <mxPoint x="125" y="259" as="sourcePoint" />
            <mxPoint x="125" y="179" as="targetPoint" />
          </mxGeometry>
        </mxCell>
        <mxCell id="EGFDkehEQVp23pimZ-VM-63" value="" style="endArrow=none;html=1;rounded=0;" edge="1" parent="1">
          <mxGeometry width="50" height="50" relative="1" as="geometry">
            <mxPoint x="105" y="299" as="sourcePoint" />
            <mxPoint x="125" y="259" as="targetPoint" />
          </mxGeometry>
        </mxCell>
        <mxCell id="EGFDkehEQVp23pimZ-VM-64" value="" style="endArrow=none;html=1;rounded=0;" edge="1" parent="1">
          <mxGeometry width="50" height="50" relative="1" as="geometry">
            <mxPoint x="115" y="279" as="sourcePoint" />
            <mxPoint x="115" y="259" as="targetPoint" />
          </mxGeometry>
        </mxCell>
        <mxCell id="EGFDkehEQVp23pimZ-VM-65" value="" style="endArrow=none;html=1;rounded=0;" edge="1" parent="1">
          <mxGeometry width="50" height="50" relative="1" as="geometry">
            <mxPoint x="105" y="299" as="sourcePoint" />
            <mxPoint x="105" y="259" as="targetPoint" />
          </mxGeometry>
        </mxCell>
        <mxCell id="EGFDkehEQVp23pimZ-VM-66" value="" style="endArrow=none;html=1;rounded=0;" edge="1" parent="1">
          <mxGeometry width="50" height="50" relative="1" as="geometry">
            <mxPoint x="105" y="299" as="sourcePoint" />
            <mxPoint x="65" y="219" as="targetPoint" />
          </mxGeometry>
        </mxCell>
        <mxCell id="EGFDkehEQVp23pimZ-VM-68" value="" style="endArrow=none;html=1;rounded=0;" edge="1" parent="1">
          <mxGeometry width="50" height="50" relative="1" as="geometry">
            <mxPoint x="95" y="279" as="sourcePoint" />
            <mxPoint x="95" y="259" as="targetPoint" />
          </mxGeometry>
        </mxCell>
        <mxCell id="EGFDkehEQVp23pimZ-VM-69" value="" style="endArrow=none;html=1;rounded=0;" edge="1" parent="1">
          <mxGeometry width="50" height="50" relative="1" as="geometry">
            <mxPoint x="55" y="139" as="sourcePoint" />
            <mxPoint x="65" y="139" as="targetPoint" />
            <Array as="points">
              <mxPoint x="65" y="139" />
              <mxPoint x="75" y="139" />
            </Array>
          </mxGeometry>
        </mxCell>
        <mxCell id="EGFDkehEQVp23pimZ-VM-70" value="" style="endArrow=none;html=1;rounded=0;" edge="1" parent="1">
          <mxGeometry width="50" height="50" relative="1" as="geometry">
            <mxPoint x="75" y="179" as="sourcePoint" />
            <mxPoint x="85" y="179" as="targetPoint" />
            <Array as="points">
              <mxPoint x="85" y="179" />
              <mxPoint x="135" y="179" />
            </Array>
          </mxGeometry>
        </mxCell>
        <mxCell id="EGFDkehEQVp23pimZ-VM-71" value="" style="rounded=0;whiteSpace=wrap;html=1;" vertex="1" parent="1">
          <mxGeometry x="955" y="383" width="80" height="20" as="geometry" />
        </mxCell>
        <mxCell id="EGFDkehEQVp23pimZ-VM-72" value="" style="rounded=0;whiteSpace=wrap;html=1;" vertex="1" parent="1">
          <mxGeometry x="955" y="335" width="80" height="20" as="geometry" />
        </mxCell>
        <mxCell id="EGFDkehEQVp23pimZ-VM-73" value="" style="rounded=0;whiteSpace=wrap;html=1;" vertex="1" parent="1">
          <mxGeometry x="841" y="363" width="80" height="12" as="geometry" />
        </mxCell>
        <mxCell id="EGFDkehEQVp23pimZ-VM-74" value="" style="rounded=0;whiteSpace=wrap;html=1;" vertex="1" parent="1">
          <mxGeometry x="726.0024999999999" y="383.00250000000005" width="80" height="20" as="geometry" />
        </mxCell>
        <mxCell id="EGFDkehEQVp23pimZ-VM-75" value="" style="rounded=0;whiteSpace=wrap;html=1;" vertex="1" parent="1">
          <mxGeometry x="726.0024999999999" y="335.00250000000005" width="80" height="20" as="geometry" />
        </mxCell>
        <mxCell id="EGFDkehEQVp23pimZ-VM-79" value="" style="endArrow=none;html=1;rounded=0;strokeColor=#00FF00;opacity=50;strokeWidth=3;" edge="1" parent="1">
          <mxGeometry width="50" height="50" relative="1" as="geometry">
            <mxPoint x="1081" y="359.01" as="sourcePoint" />
            <mxPoint x="1455" y="359" as="targetPoint" />
          </mxGeometry>
        </mxCell>
        <mxCell id="EGFDkehEQVp23pimZ-VM-76" value="" style="rounded=0;whiteSpace=wrap;html=1;" vertex="1" parent="1">
          <mxGeometry x="604.0049999999999" y="383.0050000000001" width="80" height="20" as="geometry" />
        </mxCell>
        <mxCell id="EGFDkehEQVp23pimZ-VM-80" value="" style="endArrow=none;html=1;rounded=0;strokeWidth=3;opacity=50;strokeColor=#00FF00;" edge="1" parent="1">
          <mxGeometry width="50" height="50" relative="1" as="geometry">
            <mxPoint x="1081.0025" y="379.01250000000005" as="sourcePoint" />
            <mxPoint x="1455" y="379" as="targetPoint" />
          </mxGeometry>
        </mxCell>
        <mxCell id="EGFDkehEQVp23pimZ-VM-81" value="" style="endArrow=none;html=1;rounded=0;strokeWidth=3;opacity=50;strokeColor=#00FF00;" edge="1" parent="1">
          <mxGeometry width="50" height="50" relative="1" as="geometry">
            <mxPoint x="1135.005" y="359.005" as="sourcePoint" />
            <mxPoint x="1154" y="378" as="targetPoint" />
          </mxGeometry>
        </mxCell>
        <mxCell id="EGFDkehEQVp23pimZ-VM-77" value="" style="rounded=0;whiteSpace=wrap;html=1;" vertex="1" parent="1">
          <mxGeometry x="604.0049999999999" y="335.0050000000001" width="80" height="20" as="geometry" />
        </mxCell>
        <mxCell id="EGFDkehEQVp23pimZ-VM-82" value="" style="endArrow=none;html=1;rounded=0;strokeWidth=3;opacity=50;strokeColor=#00FF00;" edge="1" parent="1">
          <mxGeometry width="50" height="50" relative="1" as="geometry">
            <mxPoint x="1154" y="360" as="sourcePoint" />
            <mxPoint x="1136" y="378" as="targetPoint" />
          </mxGeometry>
        </mxCell>
        <mxCell id="EGFDkehEQVp23pimZ-VM-83" value="" style="endArrow=none;html=1;rounded=0;strokeWidth=3;opacity=50;strokeColor=#00FF00;" edge="1" parent="1">
          <mxGeometry width="50" height="50" relative="1" as="geometry">
            <mxPoint x="1235" y="299" as="sourcePoint" />
            <mxPoint x="1165.0025" y="359.00250000000005" as="targetPoint" />
          </mxGeometry>
        </mxCell>
        <mxCell id="EGFDkehEQVp23pimZ-VM-84" value="" style="endArrow=none;html=1;rounded=0;strokeWidth=3;opacity=50;strokeColor=#00FF00;" edge="1" parent="1">
          <mxGeometry width="50" height="50" relative="1" as="geometry">
            <mxPoint x="1385.0025" y="379.00250000000005" as="sourcePoint" />
            <mxPoint x="1315.005" y="439.005" as="targetPoint" />
          </mxGeometry>
        </mxCell>
        <mxCell id="EGFDkehEQVp23pimZ-VM-85" value="" style="endArrow=none;html=1;rounded=0;strokeWidth=3;opacity=50;strokeColor=#00FF00;" edge="1" parent="1">
          <mxGeometry width="50" height="50" relative="1" as="geometry">
            <mxPoint x="1235" y="439" as="sourcePoint" />
            <mxPoint x="1166" y="380" as="targetPoint" />
          </mxGeometry>
        </mxCell>
        <mxCell id="EGFDkehEQVp23pimZ-VM-86" value="" style="endArrow=none;html=1;rounded=0;strokeWidth=3;opacity=50;strokeColor=#00FF00;" edge="1" parent="1">
          <mxGeometry width="50" height="50" relative="1" as="geometry">
            <mxPoint x="1384.0025" y="358.50249999999994" as="sourcePoint" />
            <mxPoint x="1315.0025" y="299.50249999999994" as="targetPoint" />
          </mxGeometry>
        </mxCell>
        <mxCell id="EGFDkehEQVp23pimZ-VM-87" value="" style="endArrow=none;html=1;rounded=0;strokeWidth=3;opacity=50;strokeColor=#00FF00;" edge="1" parent="1">
          <mxGeometry width="50" height="50" relative="1" as="geometry">
            <mxPoint x="1315" y="299" as="sourcePoint" />
            <mxPoint x="1235.005" y="299.505" as="targetPoint" />
          </mxGeometry>
        </mxCell>
        <mxCell id="EGFDkehEQVp23pimZ-VM-88" value="" style="endArrow=none;html=1;rounded=0;strokeWidth=3;opacity=50;strokeColor=#00FF00;" edge="1" parent="1">
          <mxGeometry width="50" height="50" relative="1" as="geometry">
            <mxPoint x="1315.0025" y="439.00250000000005" as="sourcePoint" />
            <mxPoint x="1235.0075000000002" y="439.50749999999994" as="targetPoint" />
          </mxGeometry>
        </mxCell>
        <mxCell id="EGFDkehEQVp23pimZ-VM-89" value="" style="endArrow=none;html=1;rounded=0;strokeWidth=3;opacity=50;strokeColor=#00FF00;" edge="1" parent="1">
          <mxGeometry width="50" height="50" relative="1" as="geometry">
            <mxPoint x="1395.9975000000002" y="359.49749999999995" as="sourcePoint" />
            <mxPoint x="1414.9925" y="378.49250000000006" as="targetPoint" />
          </mxGeometry>
        </mxCell>
        <mxCell id="EGFDkehEQVp23pimZ-VM-90" value="" style="endArrow=none;html=1;rounded=0;strokeWidth=3;opacity=50;strokeColor=#00FF00;" edge="1" parent="1">
          <mxGeometry width="50" height="50" relative="1" as="geometry">
            <mxPoint x="1414.0025" y="360.00250000000005" as="sourcePoint" />
            <mxPoint x="1396.0025" y="378.00250000000005" as="targetPoint" />
          </mxGeometry>
        </mxCell>
        <mxCell id="EGFDkehEQVp23pimZ-VM-91" value="" style="endArrow=none;html=1;rounded=0;strokeColor=#0000FF;opacity=50;strokeWidth=3;" edge="1" parent="1">
          <mxGeometry width="50" height="50" relative="1" as="geometry">
            <mxPoint x="83" y="359" as="sourcePoint" />
            <mxPoint x="703.0025" y="359.00249999999994" as="targetPoint" />
          </mxGeometry>
        </mxCell>
        <mxCell id="EGFDkehEQVp23pimZ-VM-92" value="" style="endArrow=none;html=1;rounded=0;strokeColor=#0000FF;opacity=50;strokeWidth=3;" edge="1" parent="1">
          <mxGeometry width="50" height="50" relative="1" as="geometry">
            <mxPoint x="82" y="379" as="sourcePoint" />
            <mxPoint x="701.995" y="379.0049999999999" as="targetPoint" />
          </mxGeometry>
        </mxCell>
        <mxCell id="EGFDkehEQVp23pimZ-VM-93" value="" style="endArrow=none;html=1;rounded=0;strokeColor=#0000FF;opacity=50;strokeWidth=3;" edge="1" parent="1">
          <mxGeometry width="50" height="50" relative="1" as="geometry">
            <mxPoint x="155" y="379" as="sourcePoint" />
            <mxPoint x="315" y="519" as="targetPoint" />
          </mxGeometry>
        </mxCell>
        <mxCell id="EGFDkehEQVp23pimZ-VM-94" value="" style="endArrow=none;html=1;rounded=0;strokeColor=#0000FF;opacity=50;strokeWidth=3;" edge="1" parent="1">
          <mxGeometry width="50" height="50" relative="1" as="geometry">
            <mxPoint x="395.0025" y="219.0025" as="sourcePoint" />
            <mxPoint x="554.0024999999999" y="358.00250000000005" as="targetPoint" />
          </mxGeometry>
        </mxCell>
        <mxCell id="EGFDkehEQVp23pimZ-VM-95" value="" style="endArrow=none;html=1;rounded=0;strokeColor=#0000FF;opacity=50;strokeWidth=3;" edge="1" parent="1">
          <mxGeometry width="50" height="50" relative="1" as="geometry">
            <mxPoint x="155" y="359" as="sourcePoint" />
            <mxPoint x="315" y="219" as="targetPoint" />
          </mxGeometry>
        </mxCell>
        <mxCell id="EGFDkehEQVp23pimZ-VM-96" value="" style="endArrow=none;html=1;rounded=0;strokeColor=#0000FF;opacity=50;strokeWidth=3;" edge="1" parent="1">
          <mxGeometry width="50" height="50" relative="1" as="geometry">
            <mxPoint x="315" y="519" as="sourcePoint" />
            <mxPoint x="395" y="519" as="targetPoint" />
          </mxGeometry>
        </mxCell>
        <mxCell id="EGFDkehEQVp23pimZ-VM-97" value="" style="endArrow=none;html=1;rounded=0;strokeColor=#0000FF;opacity=50;strokeWidth=3;" edge="1" parent="1">
          <mxGeometry width="50" height="50" relative="1" as="geometry">
            <mxPoint x="395.0025" y="519.0025" as="sourcePoint" />
            <mxPoint x="555.0024999999999" y="379.00250000000005" as="targetPoint" />
          </mxGeometry>
        </mxCell>
        <mxCell id="EGFDkehEQVp23pimZ-VM-98" value="" style="endArrow=none;html=1;rounded=0;strokeColor=#0000FF;opacity=50;strokeWidth=3;" edge="1" parent="1">
          <mxGeometry width="50" height="50" relative="1" as="geometry">
            <mxPoint x="246.00249999999997" y="459.00249999999994" as="sourcePoint" />
            <mxPoint x="463" y="459" as="targetPoint" />
          </mxGeometry>
        </mxCell>
        <mxCell id="EGFDkehEQVp23pimZ-VM-99" value="" style="endArrow=none;html=1;rounded=0;strokeColor=#0000FF;opacity=50;strokeWidth=3;" edge="1" parent="1">
          <mxGeometry width="50" height="50" relative="1" as="geometry">
            <mxPoint x="246.505" y="279.00499999999994" as="sourcePoint" />
            <mxPoint x="463.5025" y="279.0025" as="targetPoint" />
          </mxGeometry>
        </mxCell>
        <mxCell id="EGFDkehEQVp23pimZ-VM-100" value="" style="endArrow=none;html=1;rounded=0;strokeColor=#0000FF;opacity=50;strokeWidth=3;" edge="1" parent="1">
          <mxGeometry width="50" height="50" relative="1" as="geometry">
            <mxPoint x="314.99749999999995" y="219.00749999999994" as="sourcePoint" />
            <mxPoint x="395" y="219" as="targetPoint" />
          </mxGeometry>
        </mxCell>
        <mxCell id="EGFDkehEQVp23pimZ-VM-101" value="" style="endArrow=none;html=1;rounded=0;strokeColor=#0000FF;opacity=50;strokeWidth=3;" edge="1" parent="1">
          <mxGeometry width="50" height="50" relative="1" as="geometry">
            <mxPoint x="223.99999999999994" y="439.01" as="sourcePoint" />
            <mxPoint x="486" y="439" as="targetPoint" />
          </mxGeometry>
        </mxCell>
        <mxCell id="EGFDkehEQVp23pimZ-VM-102" value="" style="endArrow=none;html=1;rounded=0;strokeColor=#0000FF;opacity=50;strokeWidth=3;" edge="1" parent="1">
          <mxGeometry width="50" height="50" relative="1" as="geometry">
            <mxPoint x="224.00249999999994" y="299.01250000000005" as="sourcePoint" />
            <mxPoint x="486.0025" y="299.00250000000005" as="targetPoint" />
          </mxGeometry>
        </mxCell>
        <mxCell id="EGFDkehEQVp23pimZ-VM-103" value="" style="endArrow=none;html=1;rounded=0;strokeColor=#0000FF;opacity=50;strokeWidth=3;" edge="1" parent="1">
          <mxGeometry width="50" height="50" relative="1" as="geometry">
            <mxPoint x="565" y="359" as="sourcePoint" />
            <mxPoint x="585.0049999999999" y="378.995" as="targetPoint" />
          </mxGeometry>
        </mxCell>
        <mxCell id="EGFDkehEQVp23pimZ-VM-104" value="" style="endArrow=none;html=1;rounded=0;strokeColor=#0000FF;opacity=50;strokeWidth=3;" edge="1" parent="1">
          <mxGeometry width="50" height="50" relative="1" as="geometry">
            <mxPoint x="105" y="339" as="sourcePoint" />
            <mxPoint x="145.00749999999982" y="378.99749999999995" as="targetPoint" />
          </mxGeometry>
        </mxCell>
        <mxCell id="EGFDkehEQVp23pimZ-VM-105" value="" style="endArrow=none;html=1;rounded=0;strokeColor=#0000FF;opacity=50;strokeWidth=3;" edge="1" parent="1">
          <mxGeometry width="50" height="50" relative="1" as="geometry">
            <mxPoint x="124.0025" y="380.00250000000005" as="sourcePoint" />
            <mxPoint x="145" y="359" as="targetPoint" />
          </mxGeometry>
        </mxCell>
        <mxCell id="EGFDkehEQVp23pimZ-VM-106" value="" style="endArrow=none;html=1;rounded=0;strokeColor=#0000FF;opacity=50;strokeWidth=3;" edge="1" parent="1">
          <mxGeometry width="50" height="50" relative="1" as="geometry">
            <mxPoint x="104.995" y="339.505" as="sourcePoint" />
            <mxPoint x="105" y="311" as="targetPoint" />
          </mxGeometry>
        </mxCell>
        <mxCell id="EGFDkehEQVp23pimZ-VM-107" value="" style="endArrow=none;html=1;rounded=0;strokeColor=#0000FF;opacity=50;strokeWidth=3;" edge="1" parent="1">
          <mxGeometry width="50" height="50" relative="1" as="geometry">
            <mxPoint x="564.995" y="379.5050000000001" as="sourcePoint" />
            <mxPoint x="585.9925000000001" y="358.50250000000005" as="targetPoint" />
          </mxGeometry>
        </mxCell>
        <mxCell id="EGFDkehEQVp23pimZ-VM-109" value="博麗神社&lt;br&gt;" style="text;strokeColor=none;align=center;fillColor=none;html=1;verticalAlign=middle;whiteSpace=wrap;rounded=0;" vertex="1" parent="1">
          <mxGeometry x="1244.999226190476" y="451.001130952381" width="60" height="30" as="geometry" />
        </mxCell>
        <mxCell id="EGFDkehEQVp23pimZ-VM-110" value="南博麗" style="text;strokeColor=none;align=center;fillColor=none;html=1;verticalAlign=middle;whiteSpace=wrap;rounded=0;" vertex="1" parent="1">
          <mxGeometry x="965.0017261904761" y="408.00363095238095" width="60" height="30" as="geometry" />
        </mxCell>
        <mxCell id="EGFDkehEQVp23pimZ-VM-111" value="永遠亭" style="text;strokeColor=none;align=center;fillColor=none;html=1;verticalAlign=middle;whiteSpace=wrap;rounded=0;" vertex="1" parent="1">
          <mxGeometry x="851.0042261904761" y="383.0061309523809" width="60" height="30" as="geometry" />
        </mxCell>
        <mxCell id="EGFDkehEQVp23pimZ-VM-112" value="竹林" style="text;strokeColor=none;align=center;fillColor=none;html=1;verticalAlign=middle;whiteSpace=wrap;rounded=0;" vertex="1" parent="1">
          <mxGeometry x="736.006726190476" y="408.0086309523808" width="60" height="30" as="geometry" />
        </mxCell>
        <mxCell id="EGFDkehEQVp23pimZ-VM-113" value="南人間の里" style="text;strokeColor=none;align=center;fillColor=none;html=1;verticalAlign=middle;whiteSpace=wrap;rounded=0;" vertex="1" parent="1">
          <mxGeometry x="607.51" y="408.01" width="72.99" height="30" as="geometry" />
        </mxCell>
        <mxCell id="EGFDkehEQVp23pimZ-VM-114" value="人間の里" style="text;strokeColor=none;align=center;fillColor=none;html=1;verticalAlign=middle;whiteSpace=wrap;rounded=0;" vertex="1" parent="1">
          <mxGeometry x="318.50249999999994" y="527.0024999999999" width="72.99" height="30" as="geometry" />
        </mxCell>
        <mxCell id="EGFDkehEQVp23pimZ-VM-115" value="博麗電車区" style="text;strokeColor=none;align=center;fillColor=none;html=1;verticalAlign=middle;whiteSpace=wrap;rounded=0;" vertex="1" parent="1">
          <mxGeometry x="1510" y="265" width="90" height="30" as="geometry" />
        </mxCell>
        <mxCell id="EGFDkehEQVp23pimZ-VM-116" value="人里車両センター" style="text;strokeColor=none;align=center;fillColor=none;html=1;verticalAlign=middle;whiteSpace=wrap;rounded=0;" vertex="1" parent="1">
          <mxGeometry x="30" y="111" width="141" height="30" as="geometry" />
        </mxCell>
        <mxCell id="EGFDkehEQVp23pimZ-VM-117" value="&lt;font style=&quot;font-size: 10px;&quot;&gt;命蓮寺・守矢神社方面&lt;/font&gt;" style="text;strokeColor=none;align=center;fillColor=none;html=1;verticalAlign=middle;whiteSpace=wrap;rounded=0;" vertex="1" parent="1">
          <mxGeometry x="9" y="386" width="154" height="30" as="geometry" />
        </mxCell>
        <mxCell id="EGFDkehEQVp23pimZ-VM-119" value="" style="endArrow=none;html=1;rounded=0;" edge="1" parent="1">
          <mxGeometry width="50" height="50" relative="1" as="geometry">
            <mxPoint x="104" y="359" as="sourcePoint" />
            <mxPoint x="156" y="359" as="targetPoint" />
          </mxGeometry>
        </mxCell>
        <mxCell id="EGFDkehEQVp23pimZ-VM-120" value="&lt;font style=&quot;font-size: 60px;&quot;&gt;&lt;font style=&quot;font-size: 60px;&quot;&gt;幻想郷鉄道（博麗神社ー人間の里）配&lt;/font&gt;線図&lt;/font&gt;" style="text;strokeColor=none;align=center;fillColor=none;html=1;verticalAlign=middle;whiteSpace=wrap;rounded=0;" vertex="1" parent="1">
          <mxGeometry x="41.510000000000005" y="22" width="1449" height="96" as="geometry" />
        </mxCell>
        <mxCell id="EGFDkehEQVp23pimZ-VM-121" value="①" style="text;strokeColor=none;align=center;fillColor=none;html=1;verticalAlign=middle;whiteSpace=wrap;rounded=0;" vertex="1" parent="1">
          <mxGeometry x="1215" y="406" width="60" height="30" as="geometry" />
        </mxCell>
        <mxCell id="EGFDkehEQVp23pimZ-VM-122" value="②" style="text;strokeColor=none;align=center;fillColor=none;html=1;verticalAlign=middle;whiteSpace=wrap;rounded=0;" vertex="1" parent="1">
          <mxGeometry x="1215.0025" y="386.0025" width="60" height="30" as="geometry" />
        </mxCell>
        <mxCell id="EGFDkehEQVp23pimZ-VM-123" value="③" style="text;strokeColor=none;align=center;fillColor=none;html=1;verticalAlign=middle;whiteSpace=wrap;rounded=0;" vertex="1" parent="1">
          <mxGeometry x="1215.005" y="322.995" width="60" height="30" as="geometry" />
        </mxCell>
        <mxCell id="EGFDkehEQVp23pimZ-VM-124" value="④" style="text;strokeColor=none;align=center;fillColor=none;html=1;verticalAlign=middle;whiteSpace=wrap;rounded=0;" vertex="1" parent="1">
          <mxGeometry x="1215.0075000000002" y="304.9975" width="60" height="30" as="geometry" />
        </mxCell>
        <mxCell id="EGFDkehEQVp23pimZ-VM-125" value="①" style="text;strokeColor=none;align=center;fillColor=none;html=1;verticalAlign=middle;whiteSpace=wrap;rounded=0;" vertex="1" parent="1">
          <mxGeometry x="295.00249999999994" y="484.00249999999994" width="60" height="30" as="geometry" />
        </mxCell>
        <mxCell id="EGFDkehEQVp23pimZ-VM-126" value="②" style="text;strokeColor=none;align=center;fillColor=none;html=1;verticalAlign=middle;whiteSpace=wrap;rounded=0;" vertex="1" parent="1">
          <mxGeometry x="295.005" y="465.995" width="60" height="30" as="geometry" />
        </mxCell>
        <mxCell id="EGFDkehEQVp23pimZ-VM-127" value="④" style="text;strokeColor=none;align=center;fillColor=none;html=1;verticalAlign=middle;whiteSpace=wrap;rounded=0;" vertex="1" parent="1">
          <mxGeometry x="295.0000000000001" y="386" width="60" height="30" as="geometry" />
        </mxCell>
        <mxCell id="EGFDkehEQVp23pimZ-VM-128" value="③" style="text;strokeColor=none;align=center;fillColor=none;html=1;verticalAlign=middle;whiteSpace=wrap;rounded=0;" vertex="1" parent="1">
          <mxGeometry x="294.99750000000006" y="402.99749999999995" width="60" height="30" as="geometry" />
        </mxCell>
        <mxCell id="EGFDkehEQVp23pimZ-VM-129" value="⑤" style="text;strokeColor=none;align=center;fillColor=none;html=1;verticalAlign=middle;whiteSpace=wrap;rounded=0;" vertex="1" parent="1">
          <mxGeometry x="295.00499999999994" y="322.9949999999999" width="60" height="30" as="geometry" />
        </mxCell>
        <mxCell id="EGFDkehEQVp23pimZ-VM-130" value="⑥" style="text;strokeColor=none;align=center;fillColor=none;html=1;verticalAlign=middle;whiteSpace=wrap;rounded=0;" vertex="1" parent="1">
          <mxGeometry x="295.0075" y="304.98749999999995" width="60" height="30" as="geometry" />
        </mxCell>
        <mxCell id="EGFDkehEQVp23pimZ-VM-131" value="⑧" style="text;strokeColor=none;align=center;fillColor=none;html=1;verticalAlign=middle;whiteSpace=wrap;rounded=0;" vertex="1" parent="1">
          <mxGeometry x="295.0025000000001" y="224.99249999999998" width="60" height="30" as="geometry" />
        </mxCell>
        <mxCell id="EGFDkehEQVp23pimZ-VM-132" value="⑦" style="text;strokeColor=none;align=center;fillColor=none;html=1;verticalAlign=middle;whiteSpace=wrap;rounded=0;" vertex="1" parent="1">
          <mxGeometry x="295.00000000000006" y="241.98999999999992" width="60" height="30" as="geometry" />
        </mxCell>
      </root>
    </mxGraphModel>
  </diagram>
</mxfile>
